<svg id="Capa_1" enable-background="new 0 0 512 512" height="512" viewBox="0 0 512 512" width="512" xmlns="http://www.w3.org/2000/svg"><g><path d="m49.667 218.5c0-8.284-6.716-15-15-15h-19.667c-8.284 0-15 6.716-15 15s6.716 15 15 15h19.667c8.284 0 15-6.716 15-15z"/><path d="m51.387 304.387-13.906 13.906c-5.858 5.857-5.858 15.355 0 21.213s15.355 5.858 21.213 0l13.906-13.906c5.858-5.857 5.858-15.355 0-21.213-5.857-5.858-15.355-5.858-21.213 0z"/><path d="m58.694 97.494c-5.857-5.857-15.355-5.857-21.213 0s-5.858 15.355 0 21.213l13.906 13.906c5.858 5.858 15.355 5.858 21.213 0 5.858-5.857 5.858-15.355 0-21.213z"/><path d="m497 203.5h-19.667c-8.284 0-15 6.716-15 15s6.716 15 15 15h19.667c8.284 0 15-6.716 15-15s-6.716-15-15-15z"/><path d="m460.612 132.614 13.907-13.906c5.857-5.858 5.858-15.355.001-21.214-5.859-5.856-15.356-5.857-21.214-.001l-13.907 13.906c-5.857 5.858-5.858 15.355-.001 21.214 5.86 5.858 15.355 5.858 21.214.001z"/><path d="m460.612 304.386c-5.859-5.857-15.354-5.856-21.214.001-5.857 5.858-5.856 15.355.001 21.214l13.907 13.906c5.859 5.857 15.354 5.857 21.214-.001 5.857-5.858 5.856-15.355-.001-21.214z"/><path d="m373.01 0h-234.02c-5.52 0-10 4.48-10 10v387c0 5.52 4.48 10 10 10h102.01v75h-38.77c-8.29 0-15 6.72-15 15s6.71 15 15 15h107.54c8.29 0 15-6.72 15-15s-6.71-15-15-15h-38.77v-75h102.01c5.52 0 10-4.48 10-10v-387c0-5.52-4.48-10-10-10zm-117.01 38.58c36.29 0 65.81 29.52 65.81 65.81 0 36.28-29.52 65.8-65.81 65.8s-65.81-29.52-65.81-65.8c0-36.29 29.52-65.81 65.81-65.81zm0 333.53c-44.71 0-81.08-36.38-81.08-81.08 0-44.71 36.37-81.08 81.08-81.08s81.08 36.37 81.08 81.08c0 44.7-36.37 81.08-81.08 81.08z"/><path d="m256 140.19c19.74 0 35.81-16.06 35.81-35.8 0-19.75-16.07-35.81-35.81-35.81s-35.81 16.06-35.81 35.81c0 19.74 16.07 35.8 35.81 35.8z"/><path d="m256 239.95c-28.17 0-51.08 22.91-51.08 51.08 0 28.16 22.91 51.08 51.08 51.08s51.08-22.92 51.08-51.08c0-28.17-22.91-51.08-51.08-51.08zm0 69.01c-9.89 0-17.93-8.05-17.93-17.93 0-9.89 8.04-17.94 17.93-17.94s17.93 8.05 17.93 17.94c0 9.88-8.04 17.93-17.93 17.93z"/></g></svg>